Patient4_TMGait_0pt7_02_right_38_GRF.mot
version=1
nRows=32
nColumns=19
inDegrees=no
endheader
time	F1x	F1y	F1z	M1x	M1y	M1z	F2x	F2y	F2z	M2x	M2y	M2z	EC1x	EC1y	EC1z	EC2x	EC2y	EC2z
42.94	-19.224	791.7398	64.9289	-254.6514	-69.1921	776.8988	23.8156	-22.7525	-7.5429	-2.7941	-2.3702	-44.8616	-0.0592	0.0182	-0.0073	-0.0462	0.0165	0.9585
42.9514	-11.6424	782.2974	63.5278	-252.8548	-64.3704	766.5995	14.2728	-10.2025	-4.6642	-0.22699	-1.2798	-23.3021	-0.0592	0.0182	-0.0073	-0.0462	0.0165	0.9585
42.9627	-4.0946	774.458	62.2639	-251.3284	-59.6752	756.4769	6.37	0.39411	-2.3014	1.9681	-0.33069	-5.1892	-0.0592	0.0182	-0.0073	-0.0462	0.0165	0.9585
42.9741	3.0449	768.5203	61.2945	-250.1096	-55.4209	746.9473	0.39533	8.517	-0.55432	3.6742	0.43053	8.624	-0.0592	0.0182	-0.0073	-0.0462	0.0165	0.9585
42.9854	9.6615	764.2773	60.6367	-249.1411	-51.691	738.1105	-3.6253	14.1192	0.60926	4.8705	0.96962	18.079	-0.0592	0.0182	-0.0073	-0.0462	0.0165	0.9585
42.9968	15.7121	761.2934	60.373	-248.3235	-48.5769	729.836	-6.1171	17.6339	1.2837	5.6389	1.3427	23.9529	-0.0592	0.0182	-0.0073	-0.0462	0.0165	0.9585
43.0081	21.2404	759.0549	60.3431	-247.5572	-45.9142	721.8849	-7.3529	19.4837	1.6	6.0565	1.5547	26.9638	-0.0592	0.0182	-0.0073	-0.0462	0.0165	0.9585
43.0195	26.3685	757.1976	60.6125	-246.7752	-43.7185	714.1442	-7.8205	20.1758	1.6712	6.2152	1.6767	28.0405	-0.0592	0.0182	-0.0073	-0.0462	0.0165	0.9585
43.0309	31.1922	755.4579	61.0079	-245.9499	-41.7883	706.4698	-7.7093	20.0116	1.5985	6.1619	1.7138	27.7247	-0.0592	0.0182	-0.0073	-0.0462	0.0165	0.9585
43.0422	35.8338	753.7669	61.5875	-245.0914	-40.1246	698.876	-7.3543	19.2867	1.4512	5.9406	1.7184	26.6156	-0.0592	0.0182	-0.0073	-0.0462	0.0165	0.9585
43.0536	40.4188	752.1242	62.2703	-244.231	-38.6041	691.3898	-6.801	18.0342	1.272	5.5359	1.6834	24.8334	-0.0592	0.0182	-0.0073	-0.0462	0.0165	0.9585
43.0649	44.9825	750.5116	63.0702	-243.3841	-37.2126	683.9872	-6.2396	16.3607	1.0951	4.95	1.6336	22.6313	-0.0592	0.0182	-0.0073	-0.0462	0.0165	0.9585
43.0763	49.6061	748.9589	63.9662	-242.5748	-35.9053	676.7034	-5.6084	14.148	0.94147	4.1378	1.5361	19.8492	-0.0592	0.0182	-0.0073	-0.0462	0.0165	0.9585
43.0876	54.3095	747.4459	64.894	-241.8106	-34.6063	669.4943	-5.0268	11.4707	0.83965	3.112	1.3899	16.6204	-0.0592	0.0182	-0.0073	-0.0462	0.0165	0.9585
43.099	59.1396	746.0591	65.8772	-241.124	-33.3157	662.4121	-4.4068	8.3521	0.81759	1.8995	1.148	12.9061	-0.0592	0.0182	-0.0073	-0.0462	0.0165	0.9585
43.1104	64.2185	744.9451	66.8248	-240.5669	-31.9037	655.5711	-3.9108	5.1381	0.92737	0.64099	0.80093	9.1385	-0.0592	0.0182	-0.0073	-0.0462	0.0165	0.9585
43.1217	69.5919	744.3072	67.7907	-240.2031	-30.3982	649.1196	-3.5253	2.3901	1.2205	-0.41709	0.30313	5.884	-0.0592	0.0182	-0.0073	-0.0462	0.0165	0.9585
43.1331	75.346	744.309	68.7342	-240.0852	-28.7337	643.1885	-3.5303	1.1801	1.7837	-0.83606	-0.34807	4.4126	-0.0592	0.0182	-0.0073	-0.0462	0.0165	0.9585
43.1444	81.4642	744.9294	69.6736	-240.2066	-26.9327	637.785	-4.0749	3.0223	2.6815	0.011562	-1.1534	6.4283	-0.0592	0.0182	-0.0073	-0.0462	0.0165	0.9585
43.1558	87.8799	745.926	70.5507	-240.4891	-24.9703	632.7117	-5.5837	10.0945	3.9881	2.9955	-2.0342	14.4942	-0.0592	0.0182	-0.0073	-0.0462	0.0165	0.9585
43.1671	94.4454	746.6834	71.2487	-240.7352	-22.8029	627.5401	-8.3725	24.961	5.7098	9.1477	-2.8478	31.5447	-0.0592	0.0182	-0.0073	-0.0462	0.0165	0.9585
43.1785	100.9612	746.1924	71.6338	-240.6183	-20.4104	621.4962	-12.8801	50.5041	7.7538	19.593	-3.3073	60.9719	-0.0592	0.0182	-0.0073	-0.0462	0.0165	0.9585
43.1899	107.0781	742.9968	71.4668	-239.6691	-17.7264	613.5042	-19.311	89.1209	9.8564	35.2627	-2.9993	105.5665	-0.0592	0.0182	-0.0073	-0.0462	0.0165	0.9585
43.2012	112.4746	735.2279	70.5394	-237.2824	-14.7348	602.1647	-27.6936	141.9917	11.5108	56.5552	-1.3189	166.8108	-0.0592	0.0182	-0.0073	-0.0462	0.0165	0.9585
43.2126	116.6209	720.7453	68.5766	-232.7623	-11.4142	585.8888	-37.49	207.5066	11.8805	82.7383	2.5014	242.9178	-0.0592	0.0182	-0.0073	-0.0462	0.0165	0.9585
43.2239	119.0574	697.4268	65.3888	-225.4137	-7.8125	563.0965	-47.8687	279.8849	9.829	111.3705	9.4169	327.3053	-0.0592	0.0182	-0.0073	-0.0462	0.0165	0.9585
43.2353	119.2213	663.6019	60.9043	-214.6844	-4.0928	532.5948	-57.9793	349.2253	4.0658	138.4365	20.3941	408.5078	-0.0592	0.0182	-0.0073	-0.0462	0.0165	0.9585
43.2466	116.7386	618.6021	55.2465	-200.3419	-0.50806	493.9112	-67.8585	408.0634	-5.1529	160.9561	34.984	477.9452	-0.0592	0.0182	-0.0073	-0.0462	0.0165	0.9585
43.258	111.4294	563.2349	48.744	-182.6129	2.625	447.8086	-76.9889	455.7049	-16.4332	178.6821	51.487	534.6318	-0.0592	0.0182	-0.0073	-0.0462	0.0165	0.9585
43.2694	103.5446	499.4607	41.8721	-162.1067	5.0366	395.7806	-84.7433	495.0978	-28.4081	192.8904	68.1167	581.7519	-0.0592	0.0182	-0.0073	-0.0462	0.0165	0.9585
43.2807	93.4754	430.2078	35.1084	-139.7502	6.5212	340.1235	-90.2927	529.6493	-39.2001	205.0936	82.5622	622.8918	-0.0592	0.0182	-0.0073	-0.0462	0.0165	0.9585
43.2921	81.9444	358.8718	28.7512	-116.6559	7.1291	283.3386	-93.3249	561.6102	-47.9718	216.311	93.7357	660.4368	-0.0592	0.0182	-0.0073	-0.0462	0.0165	0.9585
